/* XPM */
static char *result[] = {
/* columns rows colors chars-per-pixel */
"64 64 63 1 ",
"  c #208E20",
". c #208F20",
"X c #219121",
"o c #229222",
"O c #239323",
"+ c #239423",
"@ c #249524",
"# c #249624",
"$ c #249724",
"% c #259725",
"& c #259825",
"* c #269826",
"= c #269926",
"- c #269A26",
"; c #279A27",
": c #279B27",
"> c #289C28",
", c #289D28",
"< c #299D29",
"1 c #289E28",
"2 c #299E29",
"3 c #299F29",
"4 c #2A9F2A",
"5 c #2AA02A",
"6 c #2AA12A",
"7 c #2BA12B",
"8 c #2BA22B",
"9 c #2BA32B",
"0 c #2CA32C",
"q c #2CA42C",
"w c #2DA42D",
"e c #2DA52D",
"r c #2DA62D",
"t c #2EA62E",
"y c #2EA72E",
"u c #2EA82E",
"i c #2FA82F",
"p c #2FA92F",
"a c #2FAA2F",
"s c #30AA30",
"d c #30AB30",
"f c #31AB31",
"g c #31AC31",
"h c #31AD31",
"j c #32AD32",
"k c #32AE32",
"l c #32AF32",
"z c #33AE33",
"x c #33AF33",
"c c #33B033",
"v c #33B133",
"b c #34B034",
"n c #34B134",
"m c #34B234",
"M c #35B235",
"N c #35B335",
"B c #35B435",
"V c #36B436",
"C c #36B536",
"Z c #37B537",
"A c #37B637",
"S c #37B737",
"D c #38B738",
/* pixels */
"cvcncccnccccccccncccncvcccvccvcccvcncccnccccccccncccncvcccvccvcc",
"xNxsucxCcgulcnmkpsckCxfycxNvjihcxNxsucxCcgulcnmkpsckCxfycxNvjihc",
"cxxeukcckdrgccxcqplccxithcckkesxcxxeukcckdrgccxcqplccxithcckkesx",
"+ycccx<5cccxg*scccc#qcccxe>kccxc+ycccx<5cccxg*scccc#qcccxe>kccxc",
"0BNhccyxDllckyZnhcc0mCkccsdDckcc0BNhccyxDllckyZnhcc0mCkccsdDckcc",
"jNt:cxkVk2uxxcm8,cchCs,hxlMv58xcjNt:cxkVk2uxxcm8,cchCs,hxlMv58xc",
"cctpcxcckqkxccc8dccccstxxccc8gxccctpcxcckqkxccc8dccccstxxccc8gxc",
"xCkScckScnNccnNkDcckDxVncxVnxCccxCkScckScnNccnNkDcckDxVncxVnxCcc",
"ccc$1xccce&hcccc+8cccc2-xcccg#ucccc$1xccce&hcccc+8cccc2-xcccg#uc",
"qfxcxkipkcchkrhccllesxcchdykcckxqfxcxkipkcchkrhccllesxcchdykcckx",
":kmccc8uCccch4nvccc>fNcccyqVcccc:kmccc8uCccch4nvccc>fNcccyqVcccc",
"dZc,ccfAnuucxzBc,ccsDv8hcjMmh8ccdZc,ccfAnuucxzBc,ccsDv8hcjMmh8cc",
"cc-4ckccd+dkcccXqxxcc8;kkccc.ykccc-4ckccd+dkcccXqxxcc8;kkccc.ykc",
"xmxNccxNcnnccnnxNccxNcmcccmcxmccxmxNccxNcnnccnnxNccxNcmcccmcxmcc",
"xmx79cxNcp5kcnnx3ycxNce6ccmch4scxmx79cxNcp5kcnnx3ycxNce6ccmch4sc",
"cxxghhcckkhdcckcggkcckjhfcckxggxcxxghhcckkhdcckcggkcckjhfcckxggx",
"oucccc>5ncccg%fcccc+qvcccq:xccccoucccc>5ncccg%fcccc+qvcccq:xcccc",
"rVmuccinCggcksCvucceBNslcdjZlsccrVmuccinCggcksCvucceBNslcdjZlscc",
"km5>cxlNh=pkccn-3xxkNt;kkxnc%qxckm5>cxlNh=pkccn-3xxkNt;kkxnc%qxc",
"cchkccccxgxccccdkcccckhcccccdlcccchkccccxgxccccdkcccckhcccccdlcc",
"xCkNhckScbxccnNkNkckDxnkcxVnznlcxCkNhckScbxccnNkNkckDxnkcxVnznlc",
"ccc28lccxi3gccxc>rxccx05kccxj,pcccc28lccxi3gccxc>rxccx05kccxj,pc",
">pcccl0wxcckj3fccxx<yxccki8kcclc>pcccl0wxcckj3fccxx<yxccki8kcclc",
"5mNcccwgDccckqVnccc5xCcccpuScccc5mNcccwgDccckqVnccc5xCcccpuScccc",
"gCh;cchAxqycxcNd:ccfDk4hckNni7ccgCh;cchAxqycxcNd:ccfDk4hckNni7cc",
"cc5qcxcch>gkccc-yxxcct5lkccc*axccc5qcxcch>gkccc-yxxcct5lkccc*axc",
"xNxCccxCcnmccnmkCcckCxNvcxNvxNccxNxCccxCcnmccnmkCcckCxNvcxNvxNcc",
"cvc&1ccnce&hcccc@9ccnc3-ccvcg$uccvc&1ccnce&hcccc@9ccnc3-ccvcg$uc",
"gkxcxhjkkccfxhkcckkgkkccfkhjcchxgkxcxhjkkccfxhkcckkgkkccfkhjcchx",
"%dnccc3qNccch:kcccc*umcccr4mcccc%dnccc3qNccch:kcccc*umcccr4mcccc",
"iCn8ccsVNssclgVc8ccyZmtkcgcBktcciCn8ccsVNssclgVc8ccyZmtkcgcBktcc",
"xv-,ckxndOakcccX7xxxn8&kkccc ekcxv-,ckxndOakcccX7xxxn8&kkccc ekc",
"cvcncccnccccccccncccncvcccvccvcccvcncccnccccccccncccncvcccvccvcc",
"xNxsucxCcgulcnmkpsckCxfycxNvjihcxNxsucxCcgulcnmkpsckCxfycxNvjihc",
"cxxeukcckdrgccxcqplccxithcckkesxcxxeukcckdrgccxcqplccxithcckkesx",
"+ycccx<5cccxg*scccc#qcccxe>kccxc+ycccx<5cccxg*scccc#qcccxe>kccxc",
"0BNhccyxDllckyZnhcc0mCkccsdDckcc0BNhccyxDllckyZnhcc0mCkccsdDckcc",
"jNt:cxkVk2uxxcm8,cchCs,hxlMv58xcjNt:cxkVk2uxxcm8,cchCs,hxlMv58xc",
"cctpcxcckqkxccc8dccccstxxccc8gxccctpcxcckqkxccc8dccccstxxccc8gxc",
"xCkScckScnNccnNkDcckDxVncxVnxCccxCkScckScnNccnNkDcckDxVncxVnxCcc",
"ccc$1xccce&hcccc+8cccc2-xcccg#ucccc$1xccce&hcccc+8cccc2-xcccg#uc",
"qfxcxkipkcchkrhccllesxcchdykcckxqfxcxkipkcchkrhccllesxcchdykcckx",
":kmccc8uCccch4nvccc>fNcccyqVcccc:kmccc8uCccch4nvccc>fNcccyqVcccc",
"dZc,ccfAnuucxzBc,ccsDv8hcjMmh8ccdZc,ccfAnuucxzBc,ccsDv8hcjMmh8cc",
"cc-4ckccd+dkcccXqxxcc8;kkccc.ykccc-4ckccd+dkcccXqxxcc8;kkccc.ykc",
"xmxNccxNcnnccnnxNccxNcmcccmcxmccxmxNccxNcnnccnnxNccxNcmcccmcxmcc",
"xmx79cxNcp5kcnnx3ycxNce6ccmch4scxmx79cxNcp5kcnnx3ycxNce6ccmch4sc",
"cxxghhcckkhdcckcggkcckjhfcckxggxcxxghhcckkhdcckcggkcckjhfcckxggx",
"oucccc>5ncccg%fcccc+qvcccq:xccccoucccc>5ncccg%fcccc+qvcccq:xcccc",
"rVmuccinCggcksCvucceBNslcdjZlsccrVmuccinCggcksCvucceBNslcdjZlscc",
"km5>cxlNh=pkccn-3xxkNt;kkxnc%qxckm5>cxlNh=pkccn-3xxkNt;kkxnc%qxc",
"cchkccccxgxccccdkcccckhcccccdlcccchkccccxgxccccdkcccckhcccccdlcc",
"xCkNhckScbxccnNkNkckDxnkcxVnznlcxCkNhckScbxccnNkNkckDxnkcxVnznlc",
"ccc28lccxi3gccxc>rxccx05kccxj,pcccc28lccxi3gccxc>rxccx05kccxj,pc",
">pcccl0wxcckj3fccxx<yxccki8kcclc>pcccl0wxcckj3fccxx<yxccki8kcclc",
"5mNcccwgDccckqVnccc5xCcccpuScccc5mNcccwgDccckqVnccc5xCcccpuScccc",
"gCh;cchAxqycxcNd:ccfDk4hckNni7ccgCh;cchAxqycxcNd:ccfDk4hckNni7cc",
"cc5qcxcch>gkccc-yxxcct5lkccc*axccc5qcxcch>gkccc-yxxcct5lkccc*axc",
"xNxCccxCcnmccnmkCcckCxNvcxNvxNccxNxCccxCcnmccnmkCcckCxNvcxNvxNcc",
"cvc&1ccnce&hcccc@9ccnc3-ccvcg$uccvc&1ccnce&hcccc@9ccnc3-ccvcg$uc",
"gkxcxhjkkccfxhkcckkgkkccfkhjcchxgkxcxhjkkccfxhkcckkgkkccfkhjcchx",
"%dnccc3qNccch:kcccc*umcccr4mcccc%dnccc3qNccch:kcccc*umcccr4mcccc",
"iCn8ccsVNssclgVc8ccyZmtkcgcBktcciCn8ccsVNssclgVc8ccyZmtkcgcBktcc",
"xv-,ckxndOakcccX7xxxn8&kkccc ekcxv-,ckxndOakcccX7xxxn8&kkccc ekc"
};
