/* XPM */
static char *_cce042ccb9e4bbce974d19ac5fb1b3aSeuvF7CTJtt4Yu61[] = {
/* columns rows colors chars-per-pixel */
"64 64 10 1 ",
"  c gray3",
". c #2F2E2D",
"X c #545353",
"o c gray48",
"O c gray56",
"+ c gray65",
"@ c gray75",
"# c gray81",
"$ c gray88",
"% c white",
/* pixels */
"%%%##%%%##%%%###%%###%%###%%%##%%%##%%%###%%###%%###%%###%%%##%%",
"%%%##%%%##%%%###%%###%%###%%%##%%%##%%%###%%###%%###%%###%%%##%%",
"%%%##%%%##%%%###%%###%%###%%%##%%%##%%%###%%###%%###%%###%%%##%%",
"###%%###%%###%%%##%%%##%%%###%%###%%###%%%##%%%##%%%##%%%###%%##",
"###%%###%%###%%%##%%%##%%%###%%###%%###%%%##%%%##%%%##%%%###%%##",
"%%%##%%%##%%%###%%###%%###%%%##%%%##%%%###%%###%%###%%###%%%##%%",
"%%%##%%%##%%%###%%###%%###%%%##%%%##%%%###%%###%%###%%###%%%##%%",
"%%%##%%%##%%%###%%###%%###%%%##%%%##%%%###%%###%%###%%###%%%##%%",
"###%%###%%###%%%##%%%##%%%###%%###%%###%%%##%%%##%%%##%%%###%%##",
"###%%###%%###%%%##%%%##%%%###%%###%%###%%%##%%%##%%%##%%%###%%##",
"%%%##%%%##%%%###%%###%%###%%%##%%%##%%%###%%###%%###%%###%%%##%%",
"%%%##%%%##%%%###%%###%%###%%%##%%%##%%%###%%###%%###%%###%%%##%%",
"%%%##%%%##%%%###%%###%%###%%%##%%%##%%%###%%###%%###%%###%%%##%%",
"###%%###%%###%%%##%%%##%%%###%%###%%###%%%##%%%##%%%##%%%###%%##",
"###%%###%%###%%%##%%%##%%%###%%###%%###%%%##%%%##%%%##%%%###%%##",
"###%%###%%###%%%##%%%##%%%###%%###%%###%%%##%%%##%%%##%%%###%%##",
"%%%##%%%##%%%###%%###%%###%%%##%%%##%%%###%%###%%###%%###%%%##%%",
"%%%##%%%##%%%###%%###%%###%%%##%%%##%%%###%%###%%###%%###%%%##%%",
"###%%###%%###%%%##%%%##%%%###%%###%%###%%%##%%%##%%%##%%%###%%##",
"###%%###%%###%%%##%%%##%%%###%%###%%###%%%##%%%##%%%##%%%###%%##",
"###%%###%%###%%%##%%%##%%%###%%###%%###%%%##%%%##%%%##%%%###%%##",
"%%%##%%%##%%%###%%###%%###%%%##%%%##%%%###%%###%%###%%###%%%##%%",
"%%%##%%%##%%%###%%###%%###%%%##%%%##%%%###%%###%%###%%###%%%##%%",
"###%%###%%###%%%##%%%##%%%@+          @$$%##%%%##%%%##%%%###%%##",
"###%%###%%###%%%##%%%##%%X .    ..   .$+OXX+%%%##%%%##%%%###%%##",
"###%%###%%###%%%##%%%##%XXOOO+X.XXO+OOXX+XXoo%%##%%%##%%%###%%##",
"%%%##%%%##%%%###%%###%%.XOOO+OoXXXXO+OXXXO+X..#%%###%%###%%%##%%",
"%%%##%%%##%%%###%%###% .OOOOOOoX.XXO+OX.XOOXO#.%%###%%###%%%##%%",
"%%%##%%%##%%%###%%#+XX...      .... ..o+## ....    +%%###%%%##%%",
"###%%###%%###%OOXXX#@@##+++++@@@###$$$O+++XX.X#O.  O##%%%###%%##",
"###%%###%%##XXX+@$#@@@@@@@#$XX+#$$#@@@@@@@@X+##$@$%%##%%%###%%##",
"%%%##%%%##%O+Oo@#@@@@@@@$$#.+O+@@#@+@@@@@@@@@@@$#Oo#%%###%%%##%%",
"%%%##%%%##%o#o.#@@@+O$$#$$# #X++@$X O+@@@@@@o@$#+  .%%###%%%##%%",
"%%%##%%%##%oX++++++++++++++@...   .. O@@@@@@O$...XX.$%###%%%##%%",
"###%%###%%#.XXXXXXXXXXXXXXXXXX.   oO  @@@@@@+  XOOO o#%%%###%%##",
"###%%###%%#X++++++++++++++@@++.  .oX$ @@@@@O#. O+.o+o#%%%###%%##",
"%%%##%%%##%o.Oo.ooOOOOOoo.o$ooo ..oX$      .    X o+%%###%%%##%%",
"%%%##%%%##%%X..XoOOoOoOOOX..ooo..Xo+$     ..... @#O+%%###%%%##%%",
"%%%##%%%##%%%oooooooooooooooo.    O+  XXXXXXXXX Oo+ %%###%%%##%%",
"###%%###%%###+     @%##%%%###%%   .XO##%%%##%+   .X@##%%%###%%##",
"###%%###%%##@$$$@@$$$@@$$$@@@$$@@@$$@@@$$$@@$$$@@$$$##%%%###%%##",
"###%%###%%###%%%##%%%##%%%###%%###%%###%%%##%%%##%%%##%%%###%%##",
"%%%##%%%##%%%###%%###%%###%%%##%%%##%%%###%%###%%###%%###%%%##%%",
"%%%##%%%##%%%###%%###%%###%%%##%%%##%%%###%%###%%###%%###%%%##%%",
"###%%###%%###%%%##%%%##%%%###%%###%%###%%%##%%%##%%%##%%%###%%##",
"###%%###%%###%%%##%%%##%%%###%%###%%###%%%##%%%##%%%##%%%###%%##",
"###%%###%%###%%%##%%%##%%%###%%###%%###%%%##%%%##%%%##%%%###%%##",
"%%%##%%%##%%%###%%###%%###%%%##%%%##%%%###%%###%%###%%###%%%##%%",
"%%%##%%%##%%%###%%###%%###%%%##%%%##%%%###%%###%%###%%###%%%##%%",
"###%%###%%###%%%##%%%##%%%###%%###%%###%%%##%%%##%%%##%%%###%%##",
"###%%###%%###%%%##%%%##%%%###%%###%%###%%%##%%%##%%%##%%%###%%##",
"###%%###%%###%%%##%%%##%%%###%%###%%###%%%##%%%##%%%##%%%###%%##",
"%%%##%%%##%%%###%%###%%###%%%##%%%##%%%###%%###%%###%%###%%%##%%",
"%%%##%%%##%%%###%%###%%###%%%##%%%##%%%###%%###%%###%%###%%%##%%",
"###%%###%%###%%%##%%%##%%%###%%###%%###%%%##%%%##%%%##%%%###%%##",
"###%%###%%###%%%##%%%##%%%###%%###%%###%%%##%%%##%%%##%%%###%%##",
"###%%###%%###%%%##%%%##%%%###%%###%%###%%%##%%%##%%%##%%%###%%##",
"%%%##%%%##%%%###%%###%%###%%%##%%%##%%%###%%###%%###%%###%%%##%%",
"%%%##%%%##%%%###%%###%%###%%%##%%%##%%%###%%###%%###%%###%%%##%%",
"%%%##%%%##%%%###%%###%%###%%%##%%%##%%%###%%###%%###%%###%%%##%%",
"###%%###%%###%%%##%%%##%%%###%%###%%###%%%##%%%##%%%##%%%###%%##",
"###%%###%%###%%%##%%%##%%%###%%###%%###%%%##%%%##%%%##%%%###%%##",
"%%%##%%%##%%%###%%###%%###%%%##%%%##%%%###%%###%%###%%###%%%##%%",
"%%%##%%%##%%%###%%###%%###%%%##%%%##%%%###%%###%%###%%###%%%##%%"
};
