/* XPM */
static char *_6367a2f4f234273b4018d1748a09224[] = {
/* columns rows colors chars-per-pixel */
"64 64 48 1 ",
"  c None",
". c #FF9823",
"X c #FFA33C",
"o c #FFA43C",
"O c #FFA43E",
"+ c #FFA43F",
"@ c #FFCB3C",
"# c #FFCB3E",
"$ c #FFCC3F",
"% c #FFF132",
"& c #FFF133",
"* c #FFF134",
"= c #FFF135",
"- c #FFF136",
"; c #FFF137",
": c #FFF138",
"> c #FFF139",
", c #FFF23C",
"< c #FFF23D",
"1 c #FFF23E",
"2 c #FFA745",
"3 c #FFA746",
"4 c #FFAE54",
"5 c #FFAF56",
"6 c #FFB15B",
"7 c #FFCC40",
"8 c #FFCC41",
"9 c #FFCD42",
"0 c #FFCD44",
"q c #FFCD45",
"w c #FFCE49",
"e c #FFCF4A",
"r c #FFCF4B",
"t c #FFCF4C",
"y c #FFD04E",
"u c #FFC157",
"i c #FFC158",
"p c #FFD051",
"a c #FFD35B",
"s c #FFF240",
"d c #FFF243",
"f c #FFF249",
"g c #FFF34F",
"h c #FFF351",
"j c #FFF352",
"k c #FFC664",
"l c #FFCA72",
"z c white",
/* pixels */
"                                                                ",
"                                                                ",
"                                                                ",
"                                                                ",
"                                                                ",
"                                                                ",
"                                                                ",
"                                                                ",
"                                                                ",
"                                                                ",
"                                                                ",
"                                                                ",
"                zzzj1%%%%%%%%%%%%%%%%%%%XXXXXuuu                ",
"                zzzj%%%%%%%%%%%%%%%%%%%%XXXXXuuu                ",
"                zzz%%%%%%%%%%%%%%%%%%%%%XXXXXuuu                ",
"              zzsj%%%%%%%%%%%%%%%%%%%%%%%%%XXXXXuu              ",
"              zz%j%%%%%%%%%%%%%%%%%%%%%%%%%XXX6Xkl              ",
"           zzz%jjj%@@@@@@@@@@@@@@@@@@@%%%%%%%X665Xuuui          ",
"           zzz%jj%%@@@@@@@@@@@@@@@@@@@%%%%%%%XX66Xuuui          ",
"           zzz%%%%-@@@@@@@@@@@@@@@@@@@%%%%%%%XXXXXuuui          ",
"           %%%%%@@@@@@@@@@@@@@@@@@@@@@@@%%%%gXXXXXXXX+          ",
"           %%%%%@@@@y@@@@@@@@@@@@@@@@@@@%%1j%XXXXXXXX+          ",
"           %%%%%@@@@@y@@@@%%%@@@@@@@@@@@%jjj%XXXXXXXX+          ",
"           %%%%%@@@@@@p@@@%%%@@@@@@@@@@@--%%%XXXXXXXX+          ",
"           %%%%%@@@@@@@e@@%%%@@@@@@@@@@$%-%%%XXXXXXXX+          ",
"           %%%%%@@@@@@@@s%%%%%%%@@@@@@0@j%%%%XXXXXXXX+          ",
"           %%%%%@@@@@@@@%%%%%%%%@@@@@a@@%%%%%XXXXXXXX+          ",
"           %%%%%@@@@@@@@%%e@@@@@@@@@0@@@%%%%%XXXXXXXX+          ",
"           %%%%%@@@@@@@@%%@e@@@@@@@@@y@@%%%%%XXXXXXXX+          ",
"           %%%%%@@@@@@@@%%@@e@@@@@@@@@@@%%%%%XXXXXXXX+          ",
"           %%%%%@@@@@@@@%%%%%1%%@@@@@@@@%%%%%XXXXXXXX+          ",
"           %%%%%@@@@@@@@%%%%%%%%@@@@@@@@%%%%%XXXXXXXXo          ",
"           %%%%%@@@@@@@@%%%%%%%%@@@@@@@@%%%%%XXXXXXXX+          ",
"           %%%%%@@@@@@@@@@@@@%%%@@@@@@@@%%%%%XXXXXXXX+          ",
"           %%%%%@@@@@@@@@@@@@%%%@@@@@@@@%%%%%XXXXXXXX+          ",
"           %%%%%@@@@@@@@@@@@@%%%@@8@@@@@%%%%%XXXXXXXX+          ",
"           %%%%%@@@@@@@@%%%%%%%%@@@8@@@@%%%%%XXXXXXXX+          ",
"           %%%%%@@@@@@@@%%j%%%%%@@@@@8@@%%%%%XXXXXXXX+          ",
"           %%%%%@@@@@@@@@e%%%@@@@@@@@@@@%%%%%XXXXXXXX+          ",
"           %%%%%@@@@@@@@ta%%%@@@@@@@@@8@%%%%%XXXXXXXX+          ",
"           %%%%%@@@@@@@ea@%%%@@@@@@@@@@0%%%%%XXXXXXXX+          ",
"           %%%%%@@@@@@e@@@@@@@@@@@@@@@@@>%%%%XXXXXXXX+          ",
"           %%%%%@@@@@a@a@@@@@@@@@@@@@@@@%-%%%XXXXXXXX+          ",
"           %%%%%%%%@@@@@@@@@@@@@@@@@@@%%%%%1%XXXXXXX3+          ",
"           %%%%%%%%t@@@@@@@@@@@@@@@@@@%%%%%%%XXXXX+X5+          ",
"           %%%%%%%%@@@@@@@@@@@@@@@@@@@%%%%%%>XXXXXX6X+          ",
"              %%%%%%%%%%%%%%%%%%%%%%%%%%%%%XXXXX..              ",
"              %jj%%%%%%%%%%%%%%%%%%%%%%%%%%XXXX63.              ",
"                %j%%%%%%%%%%%%%%%%%%%%%%......3.                ",
"                jj%%%%%%%%%%%%%%%%%%%%%%......33                ",
"                f%%%%%%%%%%%%%%%%%%%%%%%.......+                ",
"                                                                ",
"                                                                ",
"                                                                ",
"                                                                ",
"                                                                ",
"                                                                ",
"                                                                ",
"                                                                ",
"                                                                ",
"                                                                ",
"                                                                ",
"                                                                ",
"                                                                "
};
