/* XPM */
static char *result[] = {
/* columns rows colors chars-per-pixel */
"64 64 9 1 ",
"  c #53555C",
". c #5E6267",
"X c #727272",
"o c gray50",
"O c #8E8280",
"+ c #AEA5A4",
"@ c #B6B0B2",
"# c #C9C3C2",
"$ c None",
/* pixels */
"o@@@@@@@@@@@oo @@@@@oooooooo @@@@@@@@+@+@++++ @oo@@oo@@@@@@oo @o",
"ooooooooooooo. @oooooooooooo @++++++++++++++O .ooooooooooooo. oo",
"ooooooooooooo. @ooooooooooo. @++++++++++++++O ..oooooooooooo. oo",
"ooooooooooooo. oooooooooooo. @++++++++++++++O ..oooooooooooo. @o",
"ooooooooooooo. oooooooooooo. @++++++++++++++O ..oooooooooooo. @o",
"ooooooooooooo. oooooooooooo. @++++++++++++++O ..oooooooooooo. @o",
"oooooooooooo.  oooooooooooo. @++++++++++++++O ..oooooooooooo. @o",
"ooooooooooo.   oooooooooooo. +++++++++++++++O  .oooooooooooo. oo",
"oo.o.o....      .....o.o.oo      ++O+O+O+OOOO  .oo.o........  oo",
"                                                                ",
"@oo  @@@@@@@@@@@+@+@++ oXXXXXX                .. @@@@@@@@@@o@o @",
"oo. @@+++++++++++++++O  .XXXXXXXX ..X..X...  ... @oooooooooooo @",
"ooo @@+++++++++++++++O  .XXXXXXX. XXXXXXXXX XXX. ooooooooooooo @",
"oo. @+++++++++++++++++  .XXXXXXX. XXX.X.XX XXXX. oooooooooooo. o",
"oo.  ++++++++++++++++O  .XXXXXXX. XXXXXXXXXXXXX. @@oooooooooo. @",
"oo.   O++++++++++++++O  .XXXXXXX. XXXXXXXXXXXXX  @ooooooooooo. o",
"oo. @++++++++++++++++O  .XXXXXX.. XXXXXXXXXXXX.  ooooooooooo.. o",
"oo. @++++++++++++++++O  .XXXXXX.. XXXXXXXXXXX..  ooooooooo...  o",
"o.. OO+O+++++++O+O+O+O  .......   ...X.X....     ooooo.... .   o",
"                                                                ",
"@@oo@@@@@@.  ..       ..X @@@@@@@+@+@++O .o@@@@@o@ooo. @@@o@o@o@",
"oooooooooo. ...........XX @@+++++++++++O .ooooooooooo. @oooooooo",
"oooooooooo. XXXXXXXXXXXXX @+++++++++++++ .ooooooooooo. @oooooooo",
"oooooooooo. XXXXXXXXXXXX. @++++++++@+++O .ooooooooooo. @oooooooo",
"oooooooooo. XXXXXXXXXXXX. @+++++++++++++ ..ooo.ooooooo ooooooooo",
"oooooooooo. XXXXXXXXXXXX. @++++++++++++O ..oooo.ooooo. ooooooooo",
"oooooooooo. XXXXXXXXXXXX. @+++++++++++++ .ooooo .oooo. ooooooooo",
"ooooooooo.. XXXXXXXXXXX..  ++++ +++++++O ..oooo  @ooo. ooooooooo",
".o.o.o.o... X.........X..   ++  +O+OOO+O .....   .o... ooooooo..",
"                  . . .                                         ",
"@@@o #######@@oooooooo   XX         @@@@@@@@@@O o@@o@o@   @o@@@o",
"oooo #ooooooooooooooo.  XXXXXXXXXX @++++++++++O oooooooo. @ooooo",
"ooo. @oooooooooooooo.. XXXXXXXXXX. @+@++++++++O  ooooooo. @ooooo",
"ooo. @ooooooooooooooo. XXXXXXXXXX. @++@+++++++O  ooooooo  @ooooo",
"ooo. @oooooooooooooo.. XXXXXXXXXXX @+++++++++++  ooooooo. @ooooo",
"ooo. oooooooooooooooo. XXXXXXXXXX. @++++++++++O  ooooooo. @ooooo",
"ooo. ooooooooooooooo..  XXXXXXXXX. @++++++++++O  ooooooo. oooooo",
"ooo. oooo... ooooooo.. X XXXXXXXX  ++++++++++++  oooooo.  oooooo",
"o... oo..    ......... XX X.....   ++O+O+OOOOOO  oo.....  o.o.o.",
"                                                                ",
"@@@@@@@@o@oo @@++@@@@@@@+@  .@@@@@ooo            @@@@@@@@.  @@@o",
"ooooooooooo. @+++++++++++OO .oooooooooooooooo @oooooooooo.  @ooo",
"ooooooooooo. @+++++++++++OO  ooooooooooooooo. @ooooooooooo  @ooo",
"ooooooooooo. @+++++++++++OO  .oooooooooooooo. @ooooooooooo. @ooo",
"ooooooooo    @+++++++++++OO  ooooooooooooooo. @ooooooooooo. oooo",
"ooooooooooo  ++++++++++++OO  .oooooooooooooo. oooooooooooo. oooo",
"oooooooooo.. ++++++++++++OO  oooooo.oooooooo. oooooooooooo. oooo",
"ooooooooo... +++++++++++OOO  .o o..oo oooooo. ooo..oooooo.  oooo",
"oo.......... +++O+O+OOOOOO   .o  ..   oo.o.o. oooo......    oooo",
"                                                                ",
"XXXXXXX. @o@@@....  ........ o@@@@@@     @+@+@+@@@@++++  XXXXXXX",
"XXXXXXX. @oooo..... .........oooooooo   ++++++++++++++O .XXXXXXX",
"XXX.XXX. @ooooooooo @ooooooooooooooo   @++++++++++++++O ..XXXXXX",
"XXXXXXX. @ooooooooo @ooooooooooooooo.. @++++++++++++++O ..XXXXXX",
"XXX.XXX. @oooooooo. @ooooooooooooooo.. @++++++++++++++O ..XXXXXX",
"XXX.XXX. @ooooooooo @ooooooooooooooo.. @++++++++++++++O  .XXXXXX",
"XXX.XXXX @oooooooo. @ooooooooooooooo.. +++++++++++++++O   XXXXXX",
"XX..XXX. ooooooooo. @ooooo... oooooo.. +++++++++++++++O ..XXXXXX",
"XX...... oooo...... @.......   ooooo.. ++++++++++O+O+OO ..XXX...",
"                                                                ",
"$$$$$$$$$$$$$$$$$$$$$$$$$$$$$$$$$$$$$$$$$$$$$$$$$$$$$$$$$$$$$$$$",
"$$$$$$$$$$$$$$$$$$$$$$$$$$$$$$$$$$$$$$$$$$$$$$$$$$$$$$$$.$$$$$$$",
"$$$$$$$$$$$$$$$$$$$$$$$$$$$$$$$$$$$$$$$$$$$$$$$$$$$$$$$$$$$$$$$$",
"$$$$$$$$$$$$$$$$$$$$$$$$$$$$$$$$$$$$$$$$$$$$$$$$$$$$$$$$$$$$$$$$"
};
